<svg xmlns="http://www.w3.org/2000/svg" viewBox="0 0 223.28 199.16"><defs><style>.cls-1{fill:#32acdf;}.cls-2{fill:#fff;}</style></defs><title>Asset 4</title><g id="Layer_2" data-name="Layer 2"><g id="Layer_1-2" data-name="Layer 1"><path class="cls-1" d="M156.64,0h-90A21.64,21.64,0,0,0,47.9,10.82L2.9,88.76a21.62,21.62,0,0,0,0,21.64l45,77.94a21.64,21.64,0,0,0,18.74,10.82h90a21.64,21.64,0,0,0,18.74-10.82l45-77.94a21.62,21.62,0,0,0,0-21.64l-45-77.94A21.64,21.64,0,0,0,156.64,0Z"/><path class="cls-2" d="M165,105.12v39.49H142.15V107.77c0-9.25-3.31-15.57-11.6-15.57-6.33,0-10.09,4.25-11.74,8.37a15.51,15.51,0,0,0-.76,5.58v38.46H95.15s.31-62.4,0-68.86h22.9v9.76c0,.07-.11.15-.15.22h.15v-.22c3-4.68,8.47-11.38,20.63-11.38,15.07,0,26.36,9.84,26.36,31ZM71.19,42.55c-7.83,0-12.95,5.14-12.95,11.9,0,6.61,5,11.9,12.65,11.9H71c8,0,12.95-5.29,12.95-11.9-.15-6.76-5-11.9-12.8-11.9ZM59.6,144.61H82.49V75.75H59.6Z"/></g></g></svg>