<svg xmlns="http://www.w3.org/2000/svg" viewBox="0 0 47.21 44.74"><defs><style>.cls-1{fill:#f7f6f4;}</style></defs><title>Asset 5</title><g id="Layer_2" data-name="Layer 2"><g id="_あなたのテキスト_" data-name="[あなたのテキスト]"><g id="_Group_" data-name="&lt;Group&gt;"><g id="_Group_2" data-name="&lt;Group&gt;"><path id="_Path_" data-name="&lt;Path&gt;" class="cls-1" d="M14.85,44.74c17.81,0,27.56-17.21,27.56-32.13,0-.49,0-1,0-1.46A22.08,22.08,0,0,0,47.21,5.3a17.4,17.4,0,0,1-5.56,1.78A11.26,11.26,0,0,0,45.91.83a18.09,18.09,0,0,1-6.15,2.74A9.1,9.1,0,0,0,32.69,0C27.34,0,23,5.06,23,11.29a12.83,12.83,0,0,0,.25,2.58c-8-.47-15.19-5-20-11.8A12.64,12.64,0,0,0,2,7.75a11.9,11.9,0,0,0,4.31,9.4A8.59,8.59,0,0,1,1.9,15.73v.15c0,5.47,3.33,10,7.77,11.07a8.39,8.39,0,0,1-4.38.2C6.52,31.63,10.1,34.9,14.34,35a17.77,17.77,0,0,1-12,4.84A17.69,17.69,0,0,1,0,39.67a24.71,24.71,0,0,0,14.85,5.07"/></g></g></g></g></svg>