<svg xmlns="http://www.w3.org/2000/svg" viewBox="0 0 223.28 199.16"><defs><style>.cls-1{fill:#32acdf;}.cls-2{fill:#fff;}</style></defs><title>Asset 5</title><g id="Layer_2" data-name="Layer 2"><g id="Layer_1-2" data-name="Layer 1"><path class="cls-1" d="M156.64,0h-90A21.64,21.64,0,0,0,47.9,10.82L2.9,88.76a21.62,21.62,0,0,0,0,21.64l45,77.94a21.64,21.64,0,0,0,18.74,10.82h90a21.64,21.64,0,0,0,18.74-10.82l45-77.94a21.62,21.62,0,0,0,0-21.64l-45-77.94A21.64,21.64,0,0,0,156.64,0Z"/><g id="_Group_" data-name="&lt;Group&gt;"><path id="_Path_" data-name="&lt;Path&gt;" class="cls-2" d="M81.68,103.71H95.57v57.18a2,2,0,0,0,2,2h23.55a2.05,2.05,0,0,0,2-2V104h16a2,2,0,0,0,2-1.81l2.43-21a2,2,0,0,0-.51-1.59,2,2,0,0,0-1.52-.68H123.21V65.65c0-4,2.14-6,6.36-6h12a2.05,2.05,0,0,0,2-2V38.29a2,2,0,0,0-2-2H125c-.12,0-.38,0-.76,0-2.88,0-12.87.57-20.77,7.83a21.81,21.81,0,0,0-7.24,19.36V78.84H81.68a2,2,0,0,0-2,2v20.78A2,2,0,0,0,81.68,103.71Z"/></g></g></g></svg>