<svg xmlns="http://www.w3.org/2000/svg" viewBox="0 0 223.28 199.16"><defs><style>.cls-1{fill:#32acdf;}.cls-2{fill:#fff;}</style></defs><title>Asset 3</title><g id="Layer_2" data-name="Layer 2"><g id="Layer_1-2" data-name="Layer 1"><path class="cls-1" d="M156.64,0h-90A21.64,21.64,0,0,0,47.9,10.82L2.9,88.76a21.62,21.62,0,0,0,0,21.64l45,77.94a21.64,21.64,0,0,0,18.74,10.82h90a21.64,21.64,0,0,0,18.74-10.82l45-77.94a21.62,21.62,0,0,0,0-21.64l-45-77.94A21.64,21.64,0,0,0,156.64,0Z"/><path class="cls-2" d="M64.45,82q2.22,1.56,13.36,9.28t17.08,11.9c.43.3,1.36,1,2.77,2s2.58,1.85,3.52,2.48,2.06,1.34,3.39,2.12a19.7,19.7,0,0,0,3.74,1.76,10.46,10.46,0,0,0,3.27.58h.12a10.46,10.46,0,0,0,3.27-.58,19.7,19.7,0,0,0,3.74-1.76c1.33-.78,2.46-1.49,3.39-2.12s2.11-1.45,3.52-2.48,2.34-1.68,2.77-2Q134.39,99,158.9,82a30.84,30.84,0,0,0,7.94-8,17.23,17.23,0,0,0,3.2-9.84,10,10,0,0,0-3.1-7.37,10.08,10.08,0,0,0-7.33-3.06H63.67a9.32,9.32,0,0,0-7.73,3.39,13.14,13.14,0,0,0-2.7,8.47q0,4.11,3.59,8.9A32.41,32.41,0,0,0,64.45,82Z"/><path class="cls-2" d="M163.52,89q-21.37,14.46-32.46,22.48-3.7,2.75-6,4.27a36.13,36.13,0,0,1-6.15,3.13,18.75,18.75,0,0,1-7.18,1.6h-.12a18.75,18.75,0,0,1-7.18-1.6,36.66,36.66,0,0,1-6.16-3.13q-2.31-1.53-6-4.27Q83.42,105,59.82,89a34.32,34.32,0,0,1-6.58-5.67V135a10.46,10.46,0,0,0,10.43,10.43h95.94A10.46,10.46,0,0,0,170,135V83.29A36.34,36.34,0,0,1,163.52,89Z"/></g></g></svg>