<svg xmlns="http://www.w3.org/2000/svg" viewBox="0 0 223.28 199.16"><defs><style>.cls-1{fill:#32acdf;}.cls-2{fill:#fff;}</style></defs><title>Asset 6</title><g id="Layer_2" data-name="Layer 2"><g id="Layer_1-2" data-name="Layer 1"><path class="cls-1" d="M156.64,0h-90A21.64,21.64,0,0,0,47.9,10.82L2.9,88.76a21.62,21.62,0,0,0,0,21.64l45,77.94a21.64,21.64,0,0,0,18.74,10.82h90a21.64,21.64,0,0,0,18.74-10.82l45-77.94a21.62,21.62,0,0,0,0-21.64l-45-77.94A21.64,21.64,0,0,0,156.64,0Z"/><g id="_Group_" data-name="&lt;Group&gt;"><g id="_Group_2" data-name="&lt;Group&gt;"><path id="_Path_" data-name="&lt;Path&gt;" class="cls-2" d="M88.64,150C135.43,150,161,111.2,161,77.59c0-1.11,0-2.2-.07-3.29a52,52,0,0,0,12.69-13.18,50.75,50.75,0,0,1-14.61,4,25.58,25.58,0,0,0,11.19-14.07,51.06,51.06,0,0,1-16.16,6.17,25.45,25.45,0,0,0-44,17.4,25.16,25.16,0,0,0,.66,5.8A72.19,72.19,0,0,1,58.27,53.85a25.45,25.45,0,0,0,7.88,34,25.26,25.26,0,0,1-11.53-3.19V85A25.45,25.45,0,0,0,75,109.9a25.62,25.62,0,0,1-6.71.89,25.07,25.07,0,0,1-4.78-.46A25.46,25.46,0,0,0,87.31,128a51.51,51.51,0,0,1-37.67,10.54,72,72,0,0,0,39,11.43"/></g></g></g></g></svg>