<svg xmlns="http://www.w3.org/2000/svg" viewBox="0 0 125.28 248"><defs><style>.cls-1{fill:#fff;}</style></defs><title>face</title><g id="Layer_2" data-name="Layer 2"><g id="Layer_1-2" data-name="Layer 1"><path class="cls-1" d="M4,132.09H31.18V244a4,4,0,0,0,4,4h46.1a4,4,0,0,0,4-4V132.61h31.25a4,4,0,0,0,4-3.54l4.75-41.2a4,4,0,0,0-4-4.46h-36V57.58c0-7.78,4.19-11.73,12.46-11.73h23.54a4,4,0,0,0,4-4V4a4,4,0,0,0-4-4H88.84c-.23,0-.74,0-1.49,0C81.73,0,62.16,1.1,46.71,15.32,29.59,31.07,32,49.94,32.54,53.21v30.2H4a4,4,0,0,0-4,4v40.68a4,4,0,0,0,4,4Z"/></g></g></svg>