<svg xmlns="http://www.w3.org/2000/svg" viewBox="0 0 90.89 86.85"><defs><style>.cls-1{fill:#f6f6f6;}</style></defs><title>loink</title><g id="Layer_2" data-name="Layer 2"><g id="_あなたの画像_" data-name="[あなたの画像]"><path class="cls-1" d="M90.89,53.25v33.6H71.41V55.5c0-7.87-2.82-13.25-9.87-13.25-5.38,0-8.58,3.62-10,7.13a13.16,13.16,0,0,0-.65,4.75V86.85H31.41s.26-53.1,0-58.6H50.9v8.31c0,.06-.09.12-.13.19h.13v-.19c2.59-4,7.21-9.68,17.56-9.68,12.82,0,22.43,8.37,22.43,26.37ZM11,0C4.36,0,0,4.37,0,10.12S4.24,20.25,10.77,20.25h.13c6.79,0,11-4.5,11-10.13S17.69,0,11,0ZM1.16,86.85H20.64V28.25H1.16Z"/></g></g></svg>